<svg version="1.0" xmlns="http://www.w3.org/2000/svg" viewBox="0 0 456.000000 290.000000" preserveAspectRatio="xMidYMid meet">
  <g transform="translate(0.000000,290.000000) scale(0.100000,-0.100000)" fill="#FFF" stroke="none">
    <path d="M1694 2339c-17-5-36-15-42-22c-6-7-80-160-164-341l-153-327-347 1c-379 1-399-2-434-55c-22-33-23-84-4-120c28-53 43-55 375-55c169 0 305-4 303-8c-1-5-86-188-187-407c-177-382-184-399-170-424c19-33 77-41 100-14c9 10 103 206 209 436l193 417l352 0l352 0l193-407c106-225 204-418 217-430c29-27 67-30 91-5c9 9 103 203 207 430l190 412l490 0c538 0 518-2 550 60c20 39 19 69-5 108c-38 61-46 62-503 62c-226 0-415 0-419 0c-3 0 59 140 138 311c79 172 144 322 144 334c0 12-8 29-18 38c-22 20-75 22-89 5c-6-7-79-161-162-343c-84-181-156-333-160-338c-10-10-822-10-832 0c-4 5-76 152-159 328c-85 178-163 330-177 343c-26 24-32 25-79 11zm150-429c65-137 117-252 115-255c-4-6-479-12-479-6c0 11 234 511 239 511c3 0 59-112 125-250zm982-507c-20-53-291-633-296-633c-4 1-291 598-308 642c-2 4 134 8 303 8c288 0 307-1 301-17z" stroke-linejoin="round"/>
  </g>
</svg>
